<svg xmlns="http://www.w3.org/2000/svg" width="96.697" height="12.356"><g data-name="グループ 1"><path data-name="パス 13" d="M50.395 5.858a3.73 3.73 0 011.459 1.093 2.471 2.471 0 01.524 1.559 2.878 2.878 0 01-1.185 2.548 5.1 5.1 0 01-2.957.814h-3.949V.458h3.48a5.2 5.2 0 012.965.737 2.422 2.422 0 011.08 2.132 2.946 2.946 0 01-.371 1.5 2.77 2.77 0 01-1.046 1.031zm-3.771-.729h1.418a1.3 1.3 0 001-.38 1.323 1.323 0 00.355-.938 1.029 1.029 0 00-.4-.876 1.816 1.816 0 00-1.112-.3h-1.257zm1.5 4.653a2.475 2.475 0 001.33-.318 1.051 1.051 0 00.508-.954q0-1.21-2-1.21h-1.338v2.481zm8.123-3.6a5.518 5.518 0 01.814-2.9 6.036 6.036 0 012.206-2.145 5.975 5.975 0 013.022-.8 5.975 5.975 0 013.022.8 6.165 6.165 0 012.224 2.148 5.438 5.438 0 01.83 2.9 5.413 5.413 0 01-.83 2.916 6.083 6.083 0 01-2.224 2.117 6.067 6.067 0 01-3.022.783 6.054 6.054 0 01-3.03-.783 5.973 5.973 0 01-2.2-2.117 5.493 5.493 0 01-.814-2.916zm2.417 0a3.551 3.551 0 00.492 1.83 3.628 3.628 0 001.338 1.326 3.687 3.687 0 001.878.489 3.5 3.5 0 001.821-.489 3.517 3.517 0 001.289-1.318 3.68 3.68 0 00.467-1.838 3.655 3.655 0 00-.483-1.861 3.6 3.6 0 00-1.313-1.326 3.57 3.57 0 00-1.845-.489 3.57 3.57 0 00-1.845.489 3.6 3.6 0 00-1.313 1.326 3.655 3.655 0 00-.483 1.864zM72.958.458h3.546a7.413 7.413 0 013.739.845 5.2 5.2 0 012.134 2.191 6.36 6.36 0 01.669 2.877 5.253 5.253 0 01-.806 2.9 5.34 5.34 0 01-2.168 1.931 6.641 6.641 0 01-2.99.675h-4.126zm3.723 9.243a4.324 4.324 0 002.885-.9 3.2 3.2 0 001.064-2.59 3.609 3.609 0 00-.588-2.171 3.138 3.138 0 00-1.375-1.112 4.006 4.006 0 00-1.475-.31h-1.9v7.088zM96.697.458l-4.449 7.867v3.552h-2.336V8.325L85.544.458h2.885l2.724 5.273L93.812.458z" fill="#111"/><path data-name="パス 14" d="M8.09.45v2.176H2.337v2.44H7.43v2.176H2.337v2.471h5.979v2.176H0V.45zm15.584 0v11.9h-.064l-8.3-7.227.048 6.761h-2.369V0h.1l8.284 7.336-.048-6.885zm14.94 10.289a3.177 3.177 0 01-.975.583 8.934 8.934 0 01-1.547.5 6.932 6.932 0 01-1.539.194 7.366 7.366 0 01-3.312-.707 5.264 5.264 0 01-2.2-1.958 5.311 5.311 0 01-.776-2.855 6.568 6.568 0 01.822-3.4 5.253 5.253 0 012.208-2.083 6.761 6.761 0 013.062-.692 8.506 8.506 0 012.031.233 7.636 7.636 0 011.676.606l-.757 2.1a5.979 5.979 0 00-1.281-.458 5.645 5.645 0 00-1.361-.207 4.244 4.244 0 00-2.957.933 3.556 3.556 0 00-1.023 2.766 3.356 3.356 0 00.5 1.842 3.241 3.241 0 001.394 1.2 4.746 4.746 0 002.039.42 3.468 3.468 0 001.628-.3V8.073h-2.048V5.897h4.416z" fill="#eb51c2"/></g></svg>